<svg xmlns="http://www.w3.org/2000/svg" viewBox="0 0 100 100" width="100%" height="100%">
  <defs>
    <linearGradient id="primaryGrad" x1="0%" y1="0%" x2="100%" y2="100%">
      <stop offset="0%" stop-color="#10B981" />
      <stop offset="100%" stop-color="#059669" />
    </linearGradient>
    <linearGradient id="accentGrad" x1="0%" y1="0%" x2="100%" y2="100%">
      <stop offset="0%" stop-color="#34D399" />
      <stop offset="100%" stop-color="#10B981" />
    </linearGradient>
  </defs>
  <!-- Background soft rounded rect -->
  <rect width="100" height="100" rx="24" fill="#ECFDF5" />
  
  <!-- Outer circular dash track representing rescue logistics -->
  <circle cx="50" cy="50" r="36" stroke="url(#primaryGrad)" stroke-width="6" fill="none" stroke-dasharray="170 50" stroke-linecap="round" transform="rotate(-45 50 50)" />
  
  <!-- Stylized bowl representing food rescue -->
  <path d="M30 55 C30 68, 70 68, 70 55 C65 55, 35 55, 30 55 Z" fill="url(#primaryGrad)" />
  
  <!-- Heart representing care and charity rising from the food bowl -->
  <path d="M50 32 C50 32, 43 25, 37 31 C31 37, 44 49, 50 53 C56 49, 69 37, 63 31 C57 25, 50 32, 50 32 Z" fill="url(#accentGrad)" />
  
  <!-- Spark of hope/AI optimization -->
  <path d="M68 24 L70 27 L73 27 L71 29 L72 32 L70 30 L68 32 L69 29 L67 27 L68 27 Z" fill="#F59E0B" />
</svg>
