<svg xmlns="http://www.w3.org/2000/svg" viewBox="0 0 100 100" width="100%" height="100%">
  <defs>
    <!-- Primary Green Gradient for the Bowl and Hand -->
    <linearGradient id="primaryGrad" x1="0%" y1="0%" x2="100%" y2="100%">
      <stop offset="0%" stop-color="#10B981" />
      <stop offset="100%" stop-color="#059669" />
    </linearGradient>
    <!-- Warm Orange/Gold Gradient for the Heart/Steam -->
    <linearGradient id="warmGrad" x1="0%" y1="0%" x2="100%" y2="100%">
      <stop offset="0%" stop-color="#F59E0B" />
      <stop offset="100%" stop-color="#D97706" />
    </linearGradient>
    <!-- Soft Accent Green Gradient -->
    <linearGradient id="accentGrad" x1="0%" y1="0%" x2="100%" y2="100%">
      <stop offset="0%" stop-color="#34D399" />
      <stop offset="100%" stop-color="#10B981" />
    </linearGradient>
  </defs>
  
  <!-- Background soft rounded rect -->
  <rect width="100" height="100" rx="24" fill="#F0FDF4" />
  
  <!-- 1. The Cradling Hand (represents Donation, Care & Support) -->
  <path d="M 22,58 C 22,72, 38,82, 50,82 C 62,82, 78,72, 78,58 C 74,68, 62,74, 50,74 C 38,74, 26,68, 22,58 Z" fill="url(#primaryGrad)" />
  
  <!-- 2. The Food Bowl (represents Food Rescue, Sharing & Nourishment) -->
  <!-- Bowl Base -->
  <path d="M 30,50 C 30,64, 70,64, 70,50 Z" fill="url(#accentGrad)" />
  <!-- Bowl Rim -->
  <rect x="26" y="46" width="48" height="4" rx="2" fill="url(#primaryGrad)" />
  
  <!-- 3. Heart-shaped Steam (represents Love, Humanity & Warmth rising from the food) -->
  <path d="M 50,18 C 50,18, 43,10, 36,16 C 30,22, 43,36, 50,40 C 57,36, 70,22, 64,16 C 57,10, 50,18, 50,18 Z" fill="url(#warmGrad)" />
  
  <!-- Sparkles of hope/AI coordination -->
  <path d="M 72,22 L 74,25 L 77,25 L 75,27 L 76,30 L 74,28 L 72,30 L 73,27 L 71,25 L 72,25 Z" fill="#F59E0B" />
  <path d="M 24,30 L 25,32 L 27,32 L 25,33 L 26,35 L 24,34 L 22,35 L 23,33 L 21,32 L 23,32 Z" fill="#34D399" />
</svg>
